<?xml version="1.0" encoding="UTF-8" standalone="no"?>
<!DOCTYPE svg PUBLIC "-//W3C//DTD SVG 1.1//EN" "http://www.w3.org/Graphics/SVG/1.1/DTD/svg11.dtd">
<svg width="100%" height="100%" viewBox="0 0 156 32" version="1.1" xmlns="http://www.w3.org/2000/svg" xmlns:xlink="http://www.w3.org/1999/xlink" xml:space="preserve" xmlns:serif="http://www.serif.com/" style="fill-rule:evenodd;clip-rule:evenodd;stroke-linejoin:round;stroke-miterlimit:2;">
    <g id="Fill-1" transform="matrix(1,0,0,1,-67.6983,-89.5099)">
        <path d="M203.648,89.51C206.183,89.527 208.469,90.582 210.095,92.266L210.092,92.271L212.951,95.105C213.04,95.192 213.095,95.313 213.095,95.447C213.095,95.583 213.037,95.708 212.943,95.795L212.943,95.797L210.773,97.947L210.771,97.947C210.683,98.027 210.566,98.08 210.437,98.08C210.303,98.08 210.181,98.025 210.092,97.935L207.231,95.105L207.224,95.111C206.321,94.141 205.026,93.533 203.588,93.533C200.857,93.533 198.641,95.727 198.641,98.434C198.641,99.707 199.134,100.865 199.938,101.735L203.108,104.875L203.116,104.882C203.127,104.897 203.142,104.911 203.154,104.927C203.162,104.935 203.17,104.944 203.177,104.955C203.189,104.97 203.196,104.988 203.208,105.005C203.213,105.016 203.222,105.028 203.227,105.041C203.235,105.056 203.239,105.074 203.244,105.091C203.248,105.105 203.253,105.119 203.257,105.134C203.262,105.158 203.264,105.186 203.267,105.212L203.267,105.233C203.267,105.244 203.265,105.255 203.264,105.267C203.262,105.288 203.262,105.311 203.257,105.332C203.253,105.347 203.248,105.361 203.242,105.378C203.237,105.393 203.235,105.411 203.227,105.425C203.222,105.439 203.213,105.451 203.206,105.461C203.196,105.479 203.189,105.495 203.177,105.508C203.17,105.521 203.162,105.53 203.152,105.541C203.14,105.555 203.127,105.568 203.116,105.58C203.112,105.584 203.108,105.59 203.108,105.59L200.232,108.438L200.232,108.441C200.19,108.481 200.149,108.521 200.108,108.559L200.032,108.637C199.171,109.518 198.641,110.716 198.641,112.038C198.641,114.745 200.857,116.94 203.588,116.94C205.026,116.94 206.321,116.331 207.224,115.359L207.231,115.368L210.092,112.535C210.181,112.448 210.303,112.393 210.437,112.393C210.566,112.393 210.683,112.444 210.771,112.526L210.773,112.526L212.943,114.675L212.943,114.677C213.037,114.765 213.095,114.887 213.095,115.026C213.095,115.16 213.04,115.28 212.951,115.368L210.092,118.202L210.095,118.206C208.457,119.902 206.148,120.963 203.588,120.963C198.613,120.963 194.58,116.966 194.58,112.038C194.58,109.311 195.817,106.873 197.767,105.235C195.817,103.6 194.58,101.162 194.58,98.434C194.58,93.504 198.613,89.51 203.588,89.51L203.648,89.51ZM115.194,98.069C114.8,98.083 114.019,98.109 113.218,98.206C111.701,98.388 110.031,98.672 109.312,98.909C108.326,99.287 107.997,99.65 107.997,100.679L107.997,117.151C107.997,117.394 108.222,117.587 108.452,117.549C108.694,117.507 111.356,117.071 111.596,117.029C111.851,116.988 112.041,116.763 112.041,116.498L112.041,112.008C112.962,112.25 114.063,112.403 115.323,112.403C120.262,112.403 120.997,109.022 120.997,105.249C120.997,101.165 120.391,97.894 115.194,98.069ZM181.594,98.836C180.73,98.343 179.448,98.083 177.615,98.083C174.815,98.083 172.355,98.784 171.78,99.018C171.529,99.118 171.439,99.3 171.487,99.518C171.526,99.691 171.887,101.339 171.887,101.34C171.914,101.467 172.024,101.549 172.154,101.547C172.288,101.547 175.067,100.806 176.752,100.806C177.615,100.806 178.243,100.884 178.611,101.065C179.16,101.323 179.239,101.766 179.239,102.465L179.239,103.165L174.684,103.892C172.773,104.178 170.627,104.618 170.627,107.937C170.627,112.006 173.974,112.401 177.009,112.401C177.662,112.401 178.813,112.393 180.73,112.006C182.542,111.644 183.27,111.193 183.27,109.311L183.27,102.179C183.27,100.729 182.903,99.535 181.594,98.836ZM164.881,100.834C166.122,100.834 167.286,101.098 167.894,101.253C168.214,101.336 168.37,101.227 168.448,100.966C168.448,100.966 168.751,99.53 168.79,99.343C168.83,99.157 168.859,98.96 168.474,98.768C167.842,98.449 165.886,98.087 163.931,98.087C158.698,98.087 157.27,100.469 157.27,105.258C157.27,110.021 158.698,112.401 163.931,112.401C165.886,112.401 167.83,112.042 168.474,111.723C168.765,111.577 168.843,111.444 168.79,111.172C168.748,110.947 168.448,109.576 168.448,109.576C168.395,109.314 168.181,109.201 167.894,109.263C167.286,109.419 166.122,109.681 164.881,109.681C162.159,109.681 161.367,108.503 161.367,105.232C161.367,101.986 162.159,100.834 164.881,100.834ZM134.097,98.836C133.235,98.346 131.953,98.087 130.123,98.087C127.325,98.087 124.867,98.786 124.291,99.018C124.044,99.12 123.953,99.301 124,99.52C124.04,99.692 124.4,101.339 124.4,101.339C124.427,101.465 124.537,101.546 124.667,101.546C124.802,101.546 127.577,100.804 129.259,100.804C130.123,100.804 130.751,100.883 131.117,101.064C131.664,101.321 131.755,101.764 131.755,102.461L131.759,103.161L127.194,103.888C125.284,104.172 123.141,104.611 123.141,107.927C123.141,111.993 126.484,112.39 129.517,112.39C130.167,112.39 131.317,112.379 133.235,111.993C135.044,111.63 135.77,111.181 135.77,109.299L135.77,102.177C135.77,100.727 135.405,99.535 134.097,98.836ZM74.306,98.076C69.219,98.076 67.698,100.23 67.698,105.296C67.698,110.515 69.874,112.386 74.985,112.386C77.216,112.386 79.024,111.867 79.864,111.528C80.094,111.434 80.189,111.182 80.125,110.933L79.753,109.413C79.685,109.158 79.472,109.064 79.15,109.149C78.436,109.344 77.166,109.71 75.67,109.71C74.384,109.71 73.493,109.528 72.836,109.138C72.076,108.646 71.709,108.021 71.709,106.934L80.177,106.934C80.676,106.934 80.806,106.651 80.806,106.256L80.806,105.011C80.806,102.725 80.493,101.011 79.523,99.841C78.527,98.674 76.9,98.076 74.306,98.076ZM147.122,109.686C147.068,109.426 146.881,109.317 146.63,109.356C146.232,109.435 145.578,109.553 144.83,109.553C143.493,109.553 143.153,108.974 143.153,107.963L143.153,101.12L146.638,101.12C146.881,101.12 147.058,100.951 147.058,100.731L147.058,98.934C147.058,98.703 146.874,98.547 146.638,98.547L143.144,98.547L143.144,94.409C143.144,94.186 142.951,93.962 142.675,94.012C142.424,94.054 139.588,94.548 139.588,94.548C139.248,94.626 139.14,94.79 139.14,95.154L139.14,108.149C139.14,111.239 140.69,112.384 143.809,112.384C145.563,112.384 146.812,112.005 147.179,111.9L147.181,111.9C147.389,111.833 147.506,111.644 147.468,111.413C147.432,111.205 147.181,109.963 147.122,109.686ZM213.646,101.428L213.629,101.409L213.63,101.407C213.552,101.321 213.505,101.211 213.505,101.086C213.505,100.953 213.559,100.83 213.646,100.742L215.828,98.582L215.83,98.583C215.917,98.505 216.032,98.457 216.16,98.457C216.285,98.457 216.396,98.504 216.483,98.582L216.485,98.583L222.834,104.871C222.836,104.874 222.837,104.875 222.841,104.878C222.855,104.893 222.868,104.907 222.881,104.922C222.889,104.931 222.898,104.94 222.905,104.951C222.916,104.967 222.925,104.985 222.934,104.999C222.94,105.013 222.947,105.023 222.953,105.035C222.96,105.052 222.966,105.07 222.971,105.086C222.974,105.103 222.979,105.114 222.983,105.128C222.989,105.157 222.992,105.182 222.992,105.209C222.994,105.214 222.996,105.221 222.996,105.228L222.994,105.228L222.996,105.23C222.996,105.24 222.992,105.251 222.992,105.264C222.989,105.284 222.989,105.305 222.983,105.329C222.979,105.342 222.974,105.358 222.969,105.374C222.966,105.39 222.96,105.405 222.953,105.421C222.947,105.434 222.94,105.446 222.934,105.457C222.925,105.474 222.916,105.49 222.905,105.506C222.898,105.516 222.888,105.526 222.881,105.535C222.868,105.551 222.855,105.565 222.841,105.579C222.839,105.58 222.836,105.584 222.834,105.586L216.519,111.842C216.509,111.852 216.498,111.865 216.485,111.876L216.483,111.877C216.396,111.954 216.285,112.001 216.16,112.001C216.032,112.001 215.917,111.952 215.83,111.874L215.828,111.876L213.646,109.714C213.559,109.626 213.505,109.505 213.505,109.37C213.505,109.247 213.552,109.137 213.63,109.049L213.629,109.047L213.646,109.03L213.648,109.028L217.485,105.228L213.648,101.428L213.646,101.428ZM99.42,98.082C97.113,98.082 94.732,98.781 94.26,98.963C93.552,98.444 92.399,98.082 90.775,98.082C89.158,98.082 85.892,98.57 84.805,98.928C83.822,99.303 83.494,99.667 83.494,100.693L83.494,111.59C83.494,111.819 83.652,111.977 83.914,111.977L87.109,111.977C87.371,111.977 87.528,111.819 87.528,111.59L87.528,101.139C87.528,101.139 89.048,100.802 90.304,100.802C91.509,100.802 92.086,101.219 92.086,102.647L92.086,111.59C92.086,111.819 92.27,111.977 92.53,111.977L95.727,111.977C95.962,111.977 96.121,111.819 96.121,111.59L96.121,101.136C96.121,101.136 97.56,100.802 98.791,100.802C99.995,100.802 100.677,101.219 100.677,102.647L100.677,111.59C100.677,111.819 100.859,111.977 101.122,111.977L104.317,111.977C104.579,111.977 104.737,111.819 104.737,111.59L104.737,102.102C104.737,98.86 102.72,98.082 99.42,98.082ZM153.843,98.541C154.099,98.541 154.26,98.697 154.26,98.955L154.26,111.561C154.26,111.812 154.109,111.977 153.843,111.977L150.67,111.977C150.404,111.977 150.252,111.818 150.252,111.561L150.252,98.956C150.252,98.695 150.406,98.541 150.671,98.541L153.843,98.541ZM179.266,109.57C178.924,109.674 178.086,109.855 177.118,109.855C176.07,109.855 174.607,109.7 174.607,107.884C174.607,106.328 175.411,106.2 176.463,105.991L179.266,105.551L179.266,109.57ZM131.759,109.561C131.42,109.664 130.593,109.844 129.626,109.844C128.581,109.844 127.165,109.688 127.165,107.875C127.165,106.321 127.918,106.193 128.973,105.984L131.759,105.546L131.759,109.561ZM114.09,109.699C112.96,109.699 112.041,109.465 112.041,109.465L112.043,101.139C112.067,101.129 112.752,100.84 114.351,100.8C116.166,100.756 116.874,101.165 116.874,105.146C116.874,109.022 116.219,109.699 114.09,109.699ZM76.853,104.509C76.853,104.502 76.845,103.479 76.71,102.487C76.534,101.171 75.638,100.723 74.282,100.722C72.924,100.723 72.027,101.171 71.849,102.487C71.716,103.483 71.708,104.509 71.708,104.509L76.853,104.509ZM153.514,91.763C154.039,91.763 154.262,92.078 154.262,92.629L154.262,95.513C154.262,96.064 154.039,96.254 153.514,96.254L150.999,96.254C150.475,96.254 150.252,96.064 150.252,95.513L150.252,92.629C150.252,92.078 150.475,91.763 150.999,91.763L153.514,91.763Z" style="fill:white;"/>
    </g>
</svg>
